<svg width="900" height="900" viewBox="-450,-450,900,900"><g font-size="10" font-family="sans-serif"><g><path fill="#9467bd" fill-opacity="0.8" d="M1.8982025386783973e-14,-310A310,310,0,0,1,90.37430136377168,-296.5341222406119L87.45900131977903,-286.96850539414055A300,300,0,0,0,1.8369701987210297e-14,-300Z"></path><text dy="0.35em" transform="
        rotate(-81.52521131220325)
        translate(315)
        
      ">erfolglose Bewerbung</text><title>erfolglose Bewerbung
        1 outgoing →
        0 incoming ←</title></g><g><path fill="#ff7f0e" fill-opacity="0.8" d="M100.20673845277967,-293.3574774377776A310,310,0,0,1,209.40712064467766,228.57965312622514L202.65205223678484,221.206115928605A300,300,0,0,0,96.97426301881904,-283.89433300430096Z"></path><text dy="0.35em" transform="
        rotate(-11.817042492726543)
        translate(315)
        
      ">Wetzlar</text><title>Wetzlar
        0 outgoing →
        7 incoming ←</title></g><g><path fill="#7f7f7f" fill-opacity="0.8" d="M201.6728832632559,235.43162097790767A310,310,0,0,1,124.27717146253003,283.9985645267823L120.26823044760971,274.8373205097893A300,300,0,0,0,195.16730638379605,227.8370525592655Z"></path><text dy="0.35em" transform="
        rotate(57.89112632675014)
        translate(315)
        
      ">Vokation</text><title>Vokation
        1 outgoing →
        0 incoming ←</title></g><g><path fill="#9edae5" fill-opacity="0.8" d="M114.74326914472596,287.9826074365967A310,310,0,0,1,25.80344402209638,308.9242338771734L24.97107486009327,298.9589360101678A300,300,0,0,0,111.04187336586384,278.6928459063839Z"></path><text dy="0.35em" transform="
        rotate(76.75056301944636)
        translate(315)
        
      ">Tod</text><title>Tod
        1 outgoing →
        0 incoming ←</title></g><g><path fill="#2ca02c" fill-opacity="0.8" d="M15.493542473910521,309.61258072243953A310,310,0,0,1,-75.44082793008424,300.68036430938326L-73.0072528355654,290.980997718758A300,300,0,0,0,14.99375078120373,299.62507811848985Z"></path><text dy="0.35em" transform="
        rotate(95.60999971214258)
        translate(315)
        rotate(180)
      " text-anchor="end">Präsentation</text><title>Präsentation
        1 outgoing →
        0 incoming ←</title></g><g><path fill="#8c564b" fill-opacity="0.8" d="M-85.41974310136172,297.999106522985A310,310,0,0,1,-168.5849341987864,260.15210927684376L-163.1467105149546,251.76010575178427A300,300,0,0,0,-82.66426751744683,288.38623211901773Z"></path><text dy="0.35em" transform="
        rotate(114.4694364048388)
        translate(315)
        rotate(180)
      " text-anchor="end">Praktikum</text><title>Praktikum
        1 outgoing →
        0 incoming ←</title></g><g><path fill="#17becf" fill-opacity="0.8" d="M-177.16141576164267,254.38913649236358A310,310,0,0,1,-243.627888396172,191.69103264269395L-235.76892425436,185.50745094454254A300,300,0,0,0,-171.44653138223487,246.18303531519055Z"></path><text dy="0.35em" transform="
        rotate(133.32887309753502)
        translate(315)
        rotate(180)
      " text-anchor="end">München</text><title>München
        0 outgoing →
        1 incoming ←</title></g><g><path fill="#bcbd22" fill-opacity="0.8" d="M-249.8810699769663,183.46512166394587A310,310,0,0,1,-292.5122449843971,102.64787642317815L-283.0763661139327,99.33665460307562A300,300,0,0,0,-241.82039030028997,177.54689193285085Z"></path><text dy="0.35em" transform="
        rotate(152.18830979023122)
        translate(315)
        rotate(180)
      " text-anchor="end">Mainz</text><title>Mainz
        0 outgoing →
        1 incoming ←</title></g><g><path fill="#e377c2" fill-opacity="0.8" d="M-295.77071551510335,92.84225246989541A310,310,0,0,1,-309.989236173402,2.5833034337465106L-299.9895833936148,2.499971064915978A300,300,0,0,0,-286.2297246920355,89.84734109989878Z"></path><text dy="0.35em" transform="
        rotate(171.0477464829275)
        translate(315)
        rotate(180)
      " text-anchor="end">Koblenz</text><title>Koblenz
        0 outgoing →
        1 incoming ←</title></g><g><path fill="#1f77b4" fill-opacity="0.8" d="M-309.90313004546783,-7.749192733560069A310,310,0,0,1,-109.92784503023888,-289.85491006192694L-106.3817855131344,-280.5047516728325A300,300,0,0,0,-299.9062548827108,-7.49921877441297Z"></path><text dy="0.35em" transform="
        rotate(215.3315492390139)
        translate(315)
        rotate(180)
      " text-anchor="end">Funktionsausübung</text><title>Funktionsausübung
        4 outgoing →
        0 incoming ←</title></g><g><path fill="#d62728" fill-opacity="0.8" d="M-100.20673845278063,-293.3574774377773A310,310,0,0,1,-10.331419859394742,-309.82779372368924L-9.998148251027171,-299.83334876486055A300,300,0,0,0,-96.97426301881997,-283.8943330043006Z"></path><text dy="0.35em" transform="
        rotate(259.6153519951003)
        translate(315)
        rotate(180)
      " text-anchor="end">Aufschwörung</text><title>Aufschwörung
        1 outgoing →
        0 incoming ←</title></g></g><g><path style="mix-blend-mode: multiply;" fill="#9467bd" fill-opacity="0.8" d="M0.49833310262351865,-298.99958472231833A299,299,0,0,1,86.69066389731445,-286.1568255223748Q0,0,248.61981491061982,147.34038018754106L232.26253405705367,188.29528744340888L195.576364391152,212.76956006802135Q0,0,0.49833310262351865,-298.99958472231833Z"><title>erfolglose Bewerbung → Wetzlar 1</title></path><path style="mix-blend-mode: multiply;" fill="#7f7f7f" fill-opacity="0.8" d="M194.13801604944678,227.40147476299433A299,299,0,0,1,120.32370497923253,273.72103686065236Q0,0,280.7743306718245,68.46002655410655L277.0671668347655,112.40455979254686L249.10956738182193,146.51083044895188Q0,0,194.13801604944678,227.40147476299433Z"><title>Vokation → Wetzlar 1</title></path><path style="mix-blend-mode: multiply;" fill="#9edae5" fill-opacity="0.8" d="M110.20864050867347,277.9479367745513A299,299,0,0,1,25.3844071579226,297.92051267618484Q0,0,288.5361185956046,-16.367903524373467L297.80113767869057,26.74850271094761L281.0009704817973,67.52373351857901Q0,0,110.20864050867347,277.9479367745513Z"><title>Tod → Wetzlar 1</title></path><path style="mix-blend-mode: multiply;" fill="#2ca02c" fill-opacity="0.8" d="M14.446040540690854,298.6508193738914A299,299,0,0,1,-72.28044272051227,290.1319313693802Q0,0,271.23086069888984,-99.77384529293947L292.663149060758,-61.23137416260182L288.479956041274,-17.329597872559493Q0,0,14.446040540690854,298.6508193738914Z"><title>Präsentation → Wetzlar 1</title></path><path style="mix-blend-mode: multiply;" fill="#8c564b" fill-opacity="0.8" d="M-82.86764688299002,287.2872310077078A299,299,0,0,1,-162.1844609938921,251.19156158621394Q0,0,230.3619794812405,-174.51177154990015L262.0995721206981,-143.8916755554225L270.89677499374784,-100.67739218904485Q0,0,-82.86764688299002,287.2872310077078Z"><title>Praktikum → Wetzlar 1</title></path><path style="mix-blend-mode: multiply;" fill="#1f77b4" fill-opacity="0.8" d="M-298.89369518865726,-7.972388379277223A299,299,0,0,1,-283.9003653242523,-93.81674993707736Q0,0,169.48002564355855,-234.08870307611758L208.7656674453786,-214.05115298938614L229.77899486571678,-175.27867388390663Q0,0,-298.89369518865726,-7.972388379277223Z"><title>Funktionsausübung → Wetzlar 1</title></path><path style="mix-blend-mode: multiply;" fill="#1f77b4" fill-opacity="0.8" d="M-283.586066180786,-94.76256153200397A299,299,0,0,1,-244.21781420462318,-172.50698311986145Q0,0,-165.55518953287304,236.88072783309002L-205.16931882911132,217.50069105912854L-226.82590586778048,179.0838028054486Q0,0,-283.586066180786,-94.76256153200397Z"><title>Funktionsausübung → München 1</title></path><path style="mix-blend-mode: multiply;" fill="#1f77b4" fill-opacity="0.8" d="M-243.64143522803616,-173.32008262178584A299,299,0,0,1,-183.31844222857868,-236.21039083598177Q0,0,-233.23838037603653,170.64834578619067L-264.46125381160044,139.50356709559887L-272.53703016698586,96.1486723140753Q0,0,-243.64143522803616,-173.32008262178584Z"><title>Funktionsausübung → Mainz 1</title></path><path style="mix-blend-mode: multiply;" fill="#1f77b4" fill-opacity="0.8" d="M-182.5300572823662,-236.8201388997484A299,299,0,0,1,-106.49298164549235,-279.39263565858863Q0,0,-275.8785066528491,86.0932608686294L-295.3576895463917,46.52778982304343L-288.98555012041624,2.8899518335747816Q0,0,-182.5300572823662,-236.8201388997484Z"><title>Funktionsausübung → Koblenz 1</title></path><path style="mix-blend-mode: multiply;" fill="#d62728" fill-opacity="0.8" d="M-96.17930142532254,-283.1087105289008A299,299,0,0,1,-10.46286352669768,-298.81688119452303Q0,0,93.87421820604366,-273.32879679280796L137.2949049753718,-265.6145874529553L168.69878985680313,-234.65233495716632Q0,0,-96.17930142532254,-283.1087105289008Z"><title>Aufschwörung → Wetzlar 1</title></path></g></svg>